{
    "asset" : {
        "generator" : "Khronos glTF Blender I/O v0.9.36",
        "version" : "2.0"
    },
    "scene" : 0,
    "scenes" : [
        {
            "name" : "Scene",
            "nodes" : [
                12
            ]
        }
    ],
    "nodes" : [
        {
            "mesh" : 0,
            "name" : "mesh4",
            "translation" : [
                0.340908944606781,
                -0.013480622321367264,
                1.0873377323150635
            ]
        },
        {
            "mesh" : 1,
            "name" : "mesh5",
            "translation" : [
                0.340908944606781,
                -0.013480622321367264,
                1.0873377323150635
            ]
        },
        {
            "mesh" : 2,
            "name" : "mesh6",
            "translation" : [
                0.340908944606781,
                -0.013480622321367264,
                1.0873377323150635
            ]
        },
        {
            "children" : [
                0,
                1,
                2
            ],
            "name" : "Group_1_1"
        },
        {
            "mesh" : 3,
            "name" : "mesh1",
            "translation" : [
                12.201465606689453,
                -0.46843501925468445,
                39.85842514038086
            ]
        },
        {
            "mesh" : 4,
            "name" : "mesh2",
            "translation" : [
                12.201465606689453,
                -0.46843501925468445,
                39.85842514038086
            ]
        },
        {
            "mesh" : 5,
            "name" : "mesh3",
            "translation" : [
                12.201465606689453,
                -0.46843501925468445,
                39.85842514038086
            ]
        },
        {
            "children" : [
                4,
                5,
                6
            ],
            "name" : "Group2"
        },
        {
            "children" : [
                7
            ],
            "name" : "ske978D_1",
            "scale" : [
                0.027939999476075172,
                0.02877799980342388,
                0.02727999910712242
            ],
            "translation" : [
                4.787300109863281,
                -0.6410149931907654,
                -4.80526876449585
            ]
        },
        {
            "children" : [
                3,
                8
            ],
            "name" : "Group1"
        },
        {
            "children" : [
                9
            ],
            "name" : "Model"
        },
        {
            "children" : [
                10
            ],
            "name" : "SketchUpScene"
        },
        {
            "children" : [
                11
            ],
            "name" : "entity_0",
            "rotation" : [
                0.01776059903204441,
                0.6917824745178223,
                0.016510242596268654,
                0.7216988205909729
            ],
            "translation" : [
                3.5013623237609863,
                -0.3198317289352417,
                5.533900260925293
            ]
        }
    ],
    "materials" : [
        {
            "doubleSided" : true,
            "name" : "material1",
            "pbrMetallicRoughness" : {
                "baseColorFactor" : [
                    0.12337539345026016,
                    0.260733038187027,
                    0.737254798412323,
                    1
                ],
                "metallicFactor" : 0.5,
                "roughnessFactor" : 0.5
            }
        },
        {
            "doubleSided" : true,
            "name" : "material0",
            "pbrMetallicRoughness" : {
                "baseColorFactor" : [
                    0.41960784792900085,
                    0.7098039388656616,
                    0.13725490868091583,
                    1
                ],
                "metallicFactor" : 0.5,
                "roughnessFactor" : 0.5
            }
        }
    ],
    "meshes" : [
        {
            "name" : "Mesh_3",
            "primitives" : [
                {
                    "attributes" : {
                        "POSITION" : 0,
                        "NORMAL" : 1,
                        "TEXCOORD_0" : 2
                    },
                    "indices" : 3,
                    "material" : 0
                },
                {
                    "attributes" : {
                        "POSITION" : 4,
                        "NORMAL" : 5,
                        "TEXCOORD_0" : 6
                    },
                    "indices" : 7,
                    "material" : 0
                }
            ]
        },
        {
            "name" : "Mesh_4",
            "primitives" : [
                {
                    "attributes" : {
                        "POSITION" : 8,
                        "NORMAL" : 9,
                        "TEXCOORD_0" : 10
                    },
                    "indices" : 11,
                    "material" : 0
                }
            ]
        },
        {
            "name" : "Mesh_5",
            "primitives" : [
                {
                    "attributes" : {
                        "POSITION" : 12,
                        "NORMAL" : 13,
                        "TEXCOORD_0" : 14
                    },
                    "indices" : 15,
                    "material" : 0
                }
            ]
        },
        {
            "name" : "Mesh_0",
            "primitives" : [
                {
                    "attributes" : {
                        "POSITION" : 16,
                        "NORMAL" : 17,
                        "TEXCOORD_0" : 18
                    },
                    "indices" : 7,
                    "material" : 1
                },
                {
                    "attributes" : {
                        "POSITION" : 19,
                        "NORMAL" : 20,
                        "TEXCOORD_0" : 21
                    },
                    "indices" : 22,
                    "material" : 0
                }
            ]
        },
        {
            "name" : "Mesh_1",
            "primitives" : [
                {
                    "attributes" : {
                        "POSITION" : 23,
                        "NORMAL" : 24,
                        "TEXCOORD_0" : 25
                    },
                    "indices" : 11,
                    "material" : 1
                }
            ]
        },
        {
            "name" : "Mesh_2",
            "primitives" : [
                {
                    "attributes" : {
                        "POSITION" : 26,
                        "NORMAL" : 27,
                        "TEXCOORD_0" : 28
                    },
                    "indices" : 7,
                    "material" : 1
                },
                {
                    "attributes" : {
                        "POSITION" : 29,
                        "NORMAL" : 30,
                        "TEXCOORD_0" : 31
                    },
                    "indices" : 22,
                    "material" : 0
                }
            ]
        }
    ],
    "accessors" : [
        {
            "bufferView" : 0,
            "componentType" : 5126,
            "count" : 1002,
            "max" : [
                5.141322135925293,
                0.04560299962759018,
                -4.594167232513428
            ],
            "min" : [
                3.756364107131958,
                -0.056248001754283905,
                -5.732595920562744
            ],
            "type" : "VEC3"
        },
        {
            "bufferView" : 1,
            "componentType" : 5126,
            "count" : 1002,
            "type" : "VEC3"
        },
        {
            "bufferView" : 2,
            "componentType" : 5126,
            "count" : 1002,
            "type" : "VEC2"
        },
        {
            "bufferView" : 3,
            "componentType" : 5123,
            "count" : 1002,
            "type" : "SCALAR"
        },
        {
            "bufferView" : 4,
            "componentType" : 5126,
            "count" : 1872,
            "max" : [
                5.155454158782959,
                1.4256869554519653,
                -4.594167232513428
            ],
            "min" : [
                3.742232084274292,
                0.04560299962759018,
                -5.732595920562744
            ],
            "type" : "VEC3"
        },
        {
            "bufferView" : 5,
            "componentType" : 5126,
            "count" : 1872,
            "type" : "VEC3"
        },
        {
            "bufferView" : 6,
            "componentType" : 5126,
            "count" : 1872,
            "type" : "VEC2"
        },
        {
            "bufferView" : 7,
            "componentType" : 5123,
            "count" : 1872,
            "type" : "SCALAR"
        },
        {
            "bufferView" : 8,
            "componentType" : 5126,
            "count" : 1728,
            "max" : [
                4.929544925689697,
                2.326608896255493,
                -4.681055068969727
            ],
            "min" : [
                3.948141098022461,
                1.3452049493789673,
                -5.64080810546875
            ],
            "type" : "VEC3"
        },
        {
            "bufferView" : 9,
            "componentType" : 5126,
            "count" : 1728,
            "type" : "VEC3"
        },
        {
            "bufferView" : 10,
            "componentType" : 5126,
            "count" : 1728,
            "type" : "VEC2"
        },
        {
            "bufferView" : 11,
            "componentType" : 5123,
            "count" : 1728,
            "type" : "SCALAR"
        },
        {
            "bufferView" : 12,
            "componentType" : 5126,
            "count" : 1938,
            "max" : [
                5.321522235870361,
                1.3656870126724243,
                -4.862827777862549
            ],
            "min" : [
                3.5531880855560303,
                0.23465800285339355,
                -5.494874000549316
            ],
            "type" : "VEC3"
        },
        {
            "bufferView" : 13,
            "componentType" : 5126,
            "count" : 1938,
            "type" : "VEC3"
        },
        {
            "bufferView" : 14,
            "componentType" : 5126,
            "count" : 1938,
            "type" : "VEC2"
        },
        {
            "bufferView" : 15,
            "componentType" : 5123,
            "count" : 1938,
            "type" : "SCALAR"
        },
        {
            "bufferView" : 16,
            "componentType" : 5126,
            "count" : 1872,
            "max" : [
                66.00830078125,
                73.84596252441406,
                22.16990852355957
            ],
            "min" : [
                10.369650840759277,
                15.50206470489502,
                -22.650115966796875
            ],
            "type" : "VEC3"
        },
        {
            "bufferView" : 17,
            "componentType" : 5126,
            "count" : 1872,
            "type" : "VEC3"
        },
        {
            "bufferView" : 18,
            "componentType" : 5126,
            "count" : 1872,
            "type" : "VEC2"
        },
        {
            "bufferView" : 19,
            "componentType" : 5126,
            "count" : 66,
            "max" : [
                65.29016876220703,
                19.511917114257812,
                22.036951065063477
            ],
            "min" : [
                11.087786674499512,
                19.511917114257812,
                -22.51715850830078
            ],
            "type" : "VEC3"
        },
        {
            "bufferView" : 20,
            "componentType" : 5126,
            "count" : 66,
            "type" : "VEC3"
        },
        {
            "bufferView" : 21,
            "componentType" : 5126,
            "count" : 66,
            "type" : "VEC2"
        },
        {
            "bufferView" : 22,
            "componentType" : 5123,
            "count" : 66,
            "type" : "SCALAR"
        },
        {
            "bufferView" : 23,
            "componentType" : 5126,
            "count" : 1728,
            "max" : [
                57.11425018310547,
                109.31529998779297,
                18.749149322509766
            ],
            "min" : [
                18.476299285888672,
                70.6773452758789,
                -19.036413192749023
            ],
            "type" : "VEC3"
        },
        {
            "bufferView" : 24,
            "componentType" : 5126,
            "count" : 1728,
            "type" : "VEC3"
        },
        {
            "bufferView" : 25,
            "componentType" : 5126,
            "count" : 1728,
            "type" : "VEC2"
        },
        {
            "bufferView" : 26,
            "componentType" : 5126,
            "count" : 1872,
            "max" : [
                72.54644012451172,
                71.48375701904297,
                11.592719078063965
            ],
            "min" : [
                2.92695689201355,
                26.95503044128418,
                -13.29097843170166
            ],
            "type" : "VEC3"
        },
        {
            "bufferView" : 27,
            "componentType" : 5126,
            "count" : 1872,
            "type" : "VEC3"
        },
        {
            "bufferView" : 28,
            "componentType" : 5126,
            "count" : 1872,
            "type" : "VEC2"
        },
        {
            "bufferView" : 29,
            "componentType" : 5126,
            "count" : 66,
            "max" : [
                71.6478500366211,
                30.01539421081543,
                11.518901824951172
            ],
            "min" : [
                3.825545072555542,
                30.01539421081543,
                -13.217162132263184
            ],
            "type" : "VEC3"
        },
        {
            "bufferView" : 30,
            "componentType" : 5126,
            "count" : 66,
            "type" : "VEC3"
        },
        {
            "bufferView" : 31,
            "componentType" : 5126,
            "count" : 66,
            "type" : "VEC2"
        }
    ],
    "bufferViews" : [
        {
            "buffer" : 0,
            "byteLength" : 12024,
            "byteOffset" : 0
        },
        {
            "buffer" : 0,
            "byteLength" : 12024,
            "byteOffset" : 12024
        },
        {
            "buffer" : 0,
            "byteLength" : 8016,
            "byteOffset" : 24048
        },
        {
            "buffer" : 0,
            "byteLength" : 2004,
            "byteOffset" : 32064
        },
        {
            "buffer" : 0,
            "byteLength" : 22464,
            "byteOffset" : 34068
        },
        {
            "buffer" : 0,
            "byteLength" : 22464,
            "byteOffset" : 56532
        },
        {
            "buffer" : 0,
            "byteLength" : 14976,
            "byteOffset" : 78996
        },
        {
            "buffer" : 0,
            "byteLength" : 3744,
            "byteOffset" : 93972
        },
        {
            "buffer" : 0,
            "byteLength" : 20736,
            "byteOffset" : 97716
        },
        {
            "buffer" : 0,
            "byteLength" : 20736,
            "byteOffset" : 118452
        },
        {
            "buffer" : 0,
            "byteLength" : 13824,
            "byteOffset" : 139188
        },
        {
            "buffer" : 0,
            "byteLength" : 3456,
            "byteOffset" : 153012
        },
        {
            "buffer" : 0,
            "byteLength" : 23256,
            "byteOffset" : 156468
        },
        {
            "buffer" : 0,
            "byteLength" : 23256,
            "byteOffset" : 179724
        },
        {
            "buffer" : 0,
            "byteLength" : 15504,
            "byteOffset" : 202980
        },
        {
            "buffer" : 0,
            "byteLength" : 3876,
            "byteOffset" : 218484
        },
        {
            "buffer" : 0,
            "byteLength" : 22464,
            "byteOffset" : 222360
        },
        {
            "buffer" : 0,
            "byteLength" : 22464,
            "byteOffset" : 244824
        },
        {
            "buffer" : 0,
            "byteLength" : 14976,
            "byteOffset" : 267288
        },
        {
            "buffer" : 0,
            "byteLength" : 792,
            "byteOffset" : 282264
        },
        {
            "buffer" : 0,
            "byteLength" : 792,
            "byteOffset" : 283056
        },
        {
            "buffer" : 0,
            "byteLength" : 528,
            "byteOffset" : 283848
        },
        {
            "buffer" : 0,
            "byteLength" : 132,
            "byteOffset" : 284376
        },
        {
            "buffer" : 0,
            "byteLength" : 20736,
            "byteOffset" : 284508
        },
        {
            "buffer" : 0,
            "byteLength" : 20736,
            "byteOffset" : 305244
        },
        {
            "buffer" : 0,
            "byteLength" : 13824,
            "byteOffset" : 325980
        },
        {
            "buffer" : 0,
            "byteLength" : 22464,
            "byteOffset" : 339804
        },
        {
            "buffer" : 0,
            "byteLength" : 22464,
            "byteOffset" : 362268
        },
        {
            "buffer" : 0,
            "byteLength" : 14976,
            "byteOffset" : 384732
        },
        {
            "buffer" : 0,
            "byteLength" : 792,
            "byteOffset" : 399708
        },
        {
            "buffer" : 0,
            "byteLength" : 792,
            "byteOffset" : 400500
        },
        {
            "buffer" : 0,
            "byteLength" : 528,
            "byteOffset" : 401292
        }
    ],
    "buffers" : [
        {
            "byteLength" : 401820,
            "uri" : "data:application/octet-stream;base64,"
        }
    ]
}
